<?xml version="1.0" encoding="utf-8"?>
<!-- Generator: Adobe Illustrator 23.0.0, SVG Export Plug-In . SVG Version: 6.00 Build 0)  -->
<svg version="1.1" id="Capa_1" xmlns="http://www.w3.org/2000/svg" xmlns:xlink="http://www.w3.org/1999/xlink" x="0px" y="0px"
	 viewBox="0 0 320 160" style="enable-background:new 0 0 320 160;" xml:space="preserve">
<style type="text/css">
	.st0{fill-rule:evenodd;clip-rule:evenodd;fill:#8242F6;}
	.st1{fill-rule:evenodd;clip-rule:evenodd;fill:#6D37CE;}
	.st2{fill-rule:evenodd;clip-rule:evenodd;fill:url(#SVGID_1_);}
	.st3{fill:#6927E2;}
	.st4{fill-rule:evenodd;clip-rule:evenodd;fill:#9052FF;}
	.st5{fill-rule:evenodd;clip-rule:evenodd;fill:#7A3EE6;}
	.st6{fill-rule:evenodd;clip-rule:evenodd;fill:url(#SVGID_2_);}
	.st7{fill-rule:evenodd;clip-rule:evenodd;}
</style>
<g transform="translate(338 3881)">
	<path class="st0" d="M-330.9-3881h305.5c3.8,0,7,1.5,7,3.5v153.2c0,1.9-3.2,3.5-7,3.5h-305.5c-3.8,0-7-1.5-7-3.5v-153.2
		C-337.9-3879.5-334.8-3881-330.9-3881z"/>
	<path class="st1" d="M-337.9-3720.9h319.7c0-28.8,0.1-43.3,0.3-43.5c-11.4,2.1-34.6,3.1-56-1c-34.9-6.8-44-13.2-84.6-17.5
		c-48.5-5.2-66-12.3-110.3-13.8c-40.8-1.4-59.1,4.2-69.2,10.6C-338.1-3786.1-337.9-3764.4-337.9-3720.9z"/>
	<path class="st1" d="M-276.9-3881"/>
	<path class="st0" d="M-225.9-3751.5h48.1c1,0,1.8,0.8,1.8,1.7l0,0c0,1-0.8,1.7-1.8,1.7h-48.1c-1,0-1.8-0.8-1.8-1.7l0,0
		C-227.7-3750.8-227-3751.5-225.9-3751.5z"/>
	<path class="st0" d="M-225.9-3744.6h22.3c1,0,1.8,0.8,1.8,1.7l0,0c0,1-0.8,1.7-1.8,1.7h-22.3c-1,0-1.8-0.8-1.8-1.7l0,0
		C-227.7-3743.8-227-3744.6-225.9-3744.6z"/>
	<g transform="translate(69 103)">
		
			<linearGradient id="SVGID_1_" gradientUnits="userSpaceOnUse" x1="-1602.6232" y1="-22.5951" x2="-1603.3835" y2="-21.8837" gradientTransform="matrix(98 0 0 71 156841.9219 -2314.5)">
			<stop  offset="0" style="stop-color:#C38AFF"/>
			<stop  offset="1" style="stop-color:#9052FF"/>
		</linearGradient>
		<path class="st2" d="M-294.6-3912.3h67.6v49.4h-67.6c-1.2,0-2.2-0.9-2.2-2.1v-45.2C-296.7-3911.4-295.8-3912.3-294.6-3912.3z"/>
		<path class="st3" d="M-261.4-3891.2c-0.7-0.4-1.6,0-1.6,0.8v6.4c0,0.8,0.9,1.3,1.6,0.8l5-3.2c0.6-0.4,0.6-1.3,0-1.6L-261.4-3891.2
			z"/>
		<path class="st4" d="M-227.7-3912.3h20.7c1.1,0,2.1,0.9,2.1,2.1v6.3h-22.8V-3912.3z"/>
		<path class="st5" d="M-217.9-3909.5h9.9c0.6,0,1,0.5,1,1l0,0c0,0.6-0.5,1-1,1h-9.9c-0.6,0-1-0.5-1-1l0,0
			C-219-3909.1-218.5-3909.5-217.9-3909.5z"/>
		<rect x="-227.7" y="-3904.6" class="st5" width="22.8" height="0.7"/>
		<polygon class="st4" points="-227.7,-3903.9 -205,-3903.9 -205,-3895.6 -227.7,-3895.6 		"/>
		<path class="st5" d="M-217.9-3901.2h9.9c0.6,0,1,0.5,1,1l0,0c0,0.6-0.5,1-1,1h-9.9c-0.6,0-1-0.5-1-1l0,0
			C-219-3900.7-218.5-3901.2-217.9-3901.2z"/>
		
			<linearGradient id="SVGID_2_" gradientUnits="userSpaceOnUse" x1="-1586.2986" y1="42.4737" x2="-1585.4142" y2="42.2277" gradientTransform="matrix(32 0 0 12 50532.0156 -4399.75)">
			<stop  offset="0" style="stop-color:#C38AFF"/>
			<stop  offset="1" style="stop-color:#9052FF"/>
		</linearGradient>
		<polygon class="st6" points="-227.7,-3895.6 -205,-3895.6 -205,-3887.3 -227.7,-3887.3 		"/>
		<path class="st5" d="M-217.9-3892.8h9.9c0.6,0,1,0.5,1,1l0,0c0,0.6-0.5,1-1,1h-9.9c-0.6,0-1-0.5-1-1l0,0
			C-219-3892.3-218.5-3892.8-217.9-3892.8z"/>
		<polygon class="st4" points="-227.7,-3887.3 -205,-3887.3 -205,-3878.9 -227.7,-3878.9 		"/>
		<path class="st5" d="M-217.9-3884.5h9.9c0.6,0,1,0.5,1,1l0,0c0,0.6-0.5,1-1,1h-9.9c-0.6,0-1-0.5-1-1l0,0
			C-219-3884-218.5-3884.5-217.9-3884.5z"/>
		<polygon class="st4" points="-227.7,-3878.9 -205,-3878.9 -205,-3870.5 -227.7,-3870.5 		"/>
		<path class="st5" d="M-217.9-3876.1h9.9c0.6,0,1,0.5,1,1l0,0c0,0.6-0.5,1-1,1h-9.9c-0.6,0-1-0.5-1-1l0,0
			C-219-3875.7-218.5-3876.1-217.9-3876.1z"/>
		<g>
			<path id="workshops-c" class="st4" d="M-227.7-3870.5h22.8v5.6c0,1.2-0.9,2.1-2.1,2.1h-20.7V-3870.5z"/>
		</g>
		<g>
			<path class="st7" d="M-227.7-3870.5h22.8v5.6c0,1.2-0.9,2.1-2.1,2.1h-20.7V-3870.5z"/>
		</g>
		<path class="st5" d="M-217.9-3867.7h9.9c0.6,0,1,0.5,1,1l0,0c0,0.6-0.5,1-1,1h-9.9c-0.6,0-1-0.5-1-1l0,0
			C-219-3867.3-218.5-3867.7-217.9-3867.7z"/>
		<rect x="-227.7" y="-3896.3" class="st5" width="22.8" height="0.7"/>
		<rect x="-227.7" y="-3888" class="st5" width="22.8" height="0.7"/>
		<rect x="-227.7" y="-3879.6" class="st5" width="22.8" height="0.7"/>
		<rect x="-227.7" y="-3871.2" class="st5" width="22.8" height="0.7"/>
		<rect x="-227.7" y="-3912.3" class="st5" width="0.7" height="49.4"/>
		<ellipse class="st5" cx="-223.1" cy="-3900.1" rx="1.8" ry="1.7"/>
		<ellipse class="st5" cx="-223.1" cy="-3908.5" rx="1.8" ry="1.7"/>
		<ellipse class="st5" cx="-223.1" cy="-3891.8" rx="1.8" ry="1.7"/>
		<ellipse class="st5" cx="-223.1" cy="-3883.5" rx="1.8" ry="1.7"/>
		<ellipse class="st5" cx="-223.1" cy="-3875" rx="1.8" ry="1.7"/>
		<ellipse class="st5" cx="-223.1" cy="-3866.7" rx="1.8" ry="1.7"/>
	</g>
</g>
</svg>
