<?xml version="1.0" encoding="utf-8"?>
<!-- Generator: Adobe Illustrator 23.0.0, SVG Export Plug-In . SVG Version: 6.00 Build 0)  -->
<svg version="1.1" id="Capa_1" xmlns="http://www.w3.org/2000/svg" xmlns:xlink="http://www.w3.org/1999/xlink" x="0px" y="0px"
	 viewBox="0 0 320 160" style="enable-background:new 0 0 320 160;" xml:space="preserve">
<style type="text/css">
	.st0{fill:#E75248;}
	.st1{filter:url(#Adobe_OpacityMaskFilter);}
	.st2{fill-rule:evenodd;clip-rule:evenodd;fill:#FFFFFF;}
	.st3{mask:url(#devtips-b_2_);}
	.st4{fill-rule:evenodd;clip-rule:evenodd;fill:url(#SVGID_1_);}
	.st5{filter:url(#Adobe_OpacityMaskFilter_1_);}
	.st6{mask:url(#devtips-e_6_);fill:#BE3F36;}
	.st7{filter:url(#Adobe_OpacityMaskFilter_2_);}
	.st8{mask:url(#devtips-e_5_);enable-background:new    ;}
	.st9{fill:#BE3F36;}
	.st10{font-family:'Arial-BoldMT';}
	.st11{font-size:9.9762px;}
	.st12{enable-background:new    ;}
	.st13{filter:url(#Adobe_OpacityMaskFilter_3_);}
	.st14{mask:url(#devtips-e_4_);fill-rule:evenodd;clip-rule:evenodd;fill:#BE3F36;}
	.st15{fill-rule:evenodd;clip-rule:evenodd;fill:#CA433A;}
	.st16{filter:url(#Adobe_OpacityMaskFilter_4_);}
	.st17{mask:url(#devtips-j_2_);}
	.st18{fill-rule:evenodd;clip-rule:evenodd;fill:#E75248;}
</style>
<g transform="translate(360 3606)">
	<g>
		<rect x="-360.8" y="-3606.3" class="st0" width="320.8" height="160.3"/>
	</g>
	<defs>
		<filter id="Adobe_OpacityMaskFilter" filterUnits="userSpaceOnUse" x="-337" y="-3752" width="453.9" height="454.9">
			<feColorMatrix  type="matrix" values="1 0 0 0 0  0 1 0 0 0  0 0 1 0 0  0 0 0 1 0"/>
		</filter>
	</defs>
	<mask maskUnits="userSpaceOnUse" x="-337" y="-3752" width="453.9" height="454.9" id="devtips-b_2_">
		<g class="st1">
			<rect id="devtips-a_2_" x="-729.1" y="-3639.3" class="st2" width="718.3" height="229.5"/>
		</g>
	</mask>
	<g class="st3">
		<g transform="translate(393 -189)">
			<g transform="translate(0 233)">
				<g>
					
						<linearGradient id="SVGID_1_" gradientUnits="userSpaceOnUse" x1="-1129.7208" y1="-3032.2505" x2="-1130.6035" y2="-3032.731" gradientTransform="matrix(220 0 0 -142 248017.5 -434183)">
						<stop  offset="0" style="stop-color:#FB5D53"/>
						<stop  offset="1" style="stop-color:#CA433A"/>
					</linearGradient>
					<path class="st4" d="M-725-3639.4h209.5c2.8,0,5,2.2,5,5v131.7c0,2.8-2.2,5-5,5H-725c-2.8,0-5-2.2-5-5v-131.7
						C-730-3637.2-727.8-3639.4-725-3639.4z"/>
				</g>
				<defs>
					<filter id="Adobe_OpacityMaskFilter_1_" filterUnits="userSpaceOnUse" x="-625.1" y="-3577.1" width="14" height="18">
						<feColorMatrix  type="matrix" values="1 0 0 0 0  0 1 0 0 0  0 0 1 0 0  0 0 0 1 0"/>
					</filter>
				</defs>
				<mask maskUnits="userSpaceOnUse" x="-625.1" y="-3577.1" width="14" height="18" id="devtips-e_6_">
					<g class="st5">
						<path id="devtips-c_6_" class="st2" d="M-725-3639.4h209.5c2.8,0,5,2.2,5,5v131.7c0,2.8-2.2,5-5,5H-725c-2.8,0-5-2.2-5-5
							v-131.7C-730-3637.2-727.8-3639.4-725-3639.4z"/>
					</g>
				</mask>
				<path class="st6" d="M-622-3576.7c-1.3-0.9-3.1,0.1-3.1,1.7v13.8c0,1.7,1.8,2.6,3.1,1.7l10-6.9c1.2-0.9,1.2-2.6,0-3.5
					L-622-3576.7z"/>
				<defs>
					<filter id="Adobe_OpacityMaskFilter_2_" filterUnits="userSpaceOnUse" x="-555.4" y="-3628" width="26.7" height="12.3">
						<feColorMatrix  type="matrix" values="1 0 0 0 0  0 1 0 0 0  0 0 1 0 0  0 0 0 1 0"/>
					</filter>
				</defs>
				<mask maskUnits="userSpaceOnUse" x="-555.4" y="-3628" width="26.7" height="12.3" id="devtips-e_5_">
					<g class="st7">
						<path id="devtips-c_5_" class="st2" d="M-725-3639.4h209.5c2.8,0,5,2.2,5,5v131.7c0,2.8-2.2,5-5,5H-725c-2.8,0-5-2.2-5-5
							v-131.7C-730-3637.2-727.8-3639.4-725-3639.4z"/>
					</g>
				</mask>
				<g class="st8">
					<text transform="matrix(1 0 0 1 -555.4443 -3619.4521)" class="st9 st10 st11">LIV</text>
				</g>
				<g>
					<text transform="matrix(1 0 0 1 -537.3223 -3619.4521)" class="st9 st10 st11"> </text>
				</g>
				<g class="st12">
					<text transform="matrix(1 0 0 1 -536.3037 -3619.4521)" class="st9 st10 st11">E</text>
				</g>
				<defs>
					<filter id="Adobe_OpacityMaskFilter_3_" filterUnits="userSpaceOnUse" x="-525.5" y="-3625.4" width="4" height="4">
						<feColorMatrix  type="matrix" values="1 0 0 0 0  0 1 0 0 0  0 0 1 0 0  0 0 0 1 0"/>
					</filter>
				</defs>
				<mask maskUnits="userSpaceOnUse" x="-525.5" y="-3625.4" width="4" height="4" id="devtips-e_4_">
					<g class="st13">
						<path id="devtips-c_4_" class="st2" d="M-725-3639.4h209.5c2.8,0,5,2.2,5,5v131.7c0,2.8-2.2,5-5,5H-725c-2.8,0-5-2.2-5-5
							v-131.7C-730-3637.2-727.8-3639.4-725-3639.4z"/>
					</g>
				</mask>
				<circle class="st14" cx="-523.5" cy="-3623.4" r="2"/>
			</g>
			<g transform="translate(235 157)">
				<path id="devtips-f" class="st15" d="M-490.6-3482.2h209.5c2.8,0,5,2.2,5,5v131.7c0,2.8-2.2,5-5,5h-209.5c-2.8,0-5-2.2-5-5
					v-131.7C-495.6-3480-493.4-3482.2-490.6-3482.2z"/>
			</g>
			<g transform="translate(0 76)">
				<path id="devtips-g" class="st15" d="M-725-3563h209.5c2.8,0,5,2.2,5,5v131.7c0,2.8-2.2,5-5,5H-725c-2.8,0-5-2.2-5-5V-3558
					C-730-3560.8-727.8-3563-725-3563z"/>
			</g>
			<g transform="translate(0 390)">
				<path id="devtips-h" class="st15" d="M-725-3249.8h209.5c2.8,0,5,2.2,5,5v131.7c0,2.8-2.2,5-5,5H-725c-2.8,0-5-2.2-5-5v-131.7
					C-730-3247.5-727.8-3249.8-725-3249.8z"/>
			</g>
			<g transform="translate(235 314)">
				<g>
					<path class="st15" d="M-725.6-3639.6h209.5c2.8,0,5,2.2,5,5v131.7c0,2.8-2.2,5-5,5h-209.5c-2.8,0-5-2.2-5-5v-131.7
						C-730.6-3637.4-728.4-3639.6-725.6-3639.6z"/>
				</g>
				<defs>
					<filter id="Adobe_OpacityMaskFilter_4_" filterUnits="userSpaceOnUse" x="-700.7" y="-3609.7" width="76.8" height="49.9">
						<feColorMatrix  type="matrix" values="1 0 0 0 0  0 1 0 0 0  0 0 1 0 0  0 0 0 1 0"/>
					</filter>
				</defs>
				<mask maskUnits="userSpaceOnUse" x="-700.7" y="-3609.7" width="76.8" height="49.9" id="devtips-j_2_">
					<g class="st16">
						<path id="devtips-i_2_" class="st2" d="M-725.6-3639.6h209.5c2.8,0,5,2.2,5,5v131.7c0,2.8-2.2,5-5,5h-209.5c-2.8,0-5-2.2-5-5
							v-131.7C-730.6-3637.4-728.4-3639.6-725.6-3639.6z"/>
					</g>
				</mask>
				<g class="st17">
					<g transform="translate(30 30)">
						<path class="st18" d="M-728.7-3639.7h43.9c1.1,0,2,0.9,2,2v4c0,1.1-0.9,2-2,2h-43.9c-1.1,0-2-0.9-2-2v-4
							C-730.7-3638.8-729.8-3639.7-728.7-3639.7z"/>
						<path class="st18" d="M-728.7-3618.7h69.8c1.1,0,2,0.9,2,2v4c0,1.1-0.9,2-2,2h-69.8c-1.1,0-2-0.9-2-2v-4
							C-730.7-3617.8-729.8-3618.7-728.7-3618.7z"/>
						<path class="st18" d="M-728.7-3597.8h20c1.1,0,2,0.9,2,2v4c0,1.1-0.9,2-2,2h-20c-1.1,0-2-0.9-2-2v-4
							C-730.7-3596.9-729.8-3597.8-728.7-3597.8z"/>
						<path class="st18" d="M-694.7-3597.8h38.9c1.1,0,2,0.9,2,2v4c0,1.1-0.9,2-2,2h-38.9c-1.1,0-2-0.9-2-2v-4
							C-696.7-3596.9-695.8-3597.8-694.7-3597.8z"/>
					</g>
				</g>
			</g>
		</g>
	</g>
</g>
</svg>
